<svg preserveAspectRatio="xMidYMid meet" data-bbox="0 19.2 200 161.6" xmlns="http://www.w3.org/2000/svg" viewBox="0 19.2 200 161.6" role="img">
    <g>
        <path d="M190.1 80.8h-5.5V31.4c0-7.4-4.9-12.2-12.5-12.2H14.8C7.6 19.2 0 23.5 0 31.4v103.4c0 7.6 7.3 15.1 14.8 15.1h56.9L66.8 173h-5.3c-2.1 0-3.8 1.7-3.8 3.8s1.7 3.8 3.8 3.8h61.6c2.1 0 3.8-1.7 3.8-3.8s-1.7-3.8-3.8-3.8H119l-5-23h32.1v20.9c0 5.4 4.4 9.9 9.9 9.9h34.1c5.4 0 9.9-4.4 9.9-9.9V90.6c0-5.4-4.4-9.8-9.9-9.8zm-36.3 23h38.5v53.8h-38.5v-53.8zm36.3-15.3c1.2 0 2.2 1 2.2 2.2v5.5h-38.5v-5.5c0-1.2 1-2.2 2.2-2.2h34.1zM156 80.8c-5.4 0-9.9 4.4-9.9 9.9v28.6H7.7v-77h169.2v38.5H156zM7.7 31.4c0-3.3 4.4-4.5 7.1-4.5h157.3c4.2 0 4.8 2.2 4.8 4.5v3.2H7.7v-3.2zm103.4 141.7H74.7l4.9-23.1h26.5l5 23.1zm-1.8-30.8H14.8c-3.2 0-7.1-4.1-7.1-7.5v-7.9h138.5v15.4h-36.9zm83 28.6c0 1.2-1 2.2-2.2 2.2H156c-1.2 0-2.2-1-2.2-2.2v-5.5h38.5v5.5z"/>
    </g>
</svg>