<svg preserveAspectRatio="xMidYMid meet" data-bbox="50 0 100 200" xmlns="http://www.w3.org/2000/svg" viewBox="50 0 100 200" role="img">
    <g>
        <path d="M97 0h7v33h-7V0z"/>
        <path d="M75.2 36.9L66.6 22l6.5-3.6 8.5 14.8-6.4 3.7z"/>
        <path d="M106 60.5v7.4c11 0 20.4 8.8 20.4 20.2 0 .1-.1 0-.1 0h7.4c.2-15-12-27.7-27.4-28-.1 0-.3.4-.3.4z"/>
        <path d="M100 42.1c-27.6 0-50 22.3-50 49.9 0 8 1.9 15.9 5.6 23 2.5 5.7 5.8 11.2 9.3 16.3C69.3 138 73 143.6 73 150v33c0 2 1.6 2.2 3.7 2.2h7.5c.6 7 7.4 14.8 15.8 14.8s15.2-7.8 15.8-14.8h7.5c2.1 0 3.7 0 3.7-2.2v-33c0-6.4 3.8-12.1 8.2-18.7 3.7-5.3 6.9-10.9 9.4-16.8 3.5-7 5.4-14.7 5.4-22.5 0-27.5-22.4-49.9-50-49.9zm0 150.5c-4.3 0-7.8-4.4-8.3-7.4h16.7c-.6 3-4.1 7.4-8.4 7.4zm20-14.4H81v-10h39v10zm0-12H81v-7h39v7zm0-9H81v-6h39v6zm17.9-47.1h-.9v1.4c-2 5.6-4.9 10.7-8.3 15.7-4.7 7.1-8.4 13-8.7 22H80.7c-.3-9-4.5-14.9-9.1-22-3-4.7-6.5-9.4-8.5-15.2v-.3c-3-6-5.2-12.8-5.2-19.6 0-23.5 18.9-42.5 42.4-42.5s42.4 18.4 42.4 41.9c-.1 6.7-1.8 13.6-4.8 18.6z"/>
        <path d="M125.3 36.9l-6.4-3.7 8.5-14.8 6.4 3.7-8.5 14.8z"/>
    </g>
</svg>