<svg preserveAspectRatio="xMidYMid meet" data-bbox="16.6 0 166.7 200.1" xmlns="http://www.w3.org/2000/svg" viewBox="16.6 0 166.7 200.1" role="img">
    <g>
        <path d="M179.2 0H20.8c-2.3 0-4.2 1.9-4.2 4.2v191.7c0 2.3 1.9 4.2 4.2 4.2h158.3c2.3 0 4.2-1.9 4.2-4.2V4.2c0-2.3-1.8-4.2-4.1-4.2zM175 191.7H25V8.3h150v183.4zm-45-62c0-.1 0-.1 0 0 .4-2 .6-4.1.6-6.2 0-16.1-13.1-29.2-29.2-29.2s-29.2 13.1-29.2 29.2c0 2.1.2 4.1.7 6.1l-.1.1-25 41.7c-.9 1.5-.8 3.4.3 4.8s2.9 1.9 4.6 1.3l22.6-7.5 14.8 14.8c.8.8 1.9 1.2 2.9 1.2.4 0 .7 0 1.1-.2 1.4-.4 2.6-1.5 2.9-3l4.3-17.2 4.3 17.2c.4 1.5 1.5 2.6 2.9 3 .4.1.7.2 1.1.2 1.1 0 2.2-.4 2.9-1.2l14.8-14.8 22.6 7.5c1.7.5 3.5 0 4.6-1.3 1.1-1.4 1.2-3.3.3-4.8L130 129.7zm-28.6-27.1c11.5 0 20.8 9.3 20.8 20.8s-9.3 20.8-20.8 20.8-20.8-9.3-20.8-20.8c0-11.4 9.4-20.8 20.8-20.8zm-10.6 71.1l-11.5-11.5c-1.1-1.1-2.8-1.5-4.3-1L60.8 166l16.1-26.8c4.3 6.7 11.2 11.5 19.3 13l-5.4 21.5zm37-12.5c-1.5-.5-3.1-.1-4.3 1L112 173.7l-5.4-21.5c8.1-1.5 15-6.3 19.3-13L142 166l-14.2-4.8zm-65.3-132c0-2.3 1.9-4.2 4.2-4.2h66.7c2.3 0 4.2 1.9 4.2 4.2s-1.9 4.2-4.2 4.2H66.7c-2.3-.1-4.2-1.9-4.2-4.2zm4.2 54.1c-2.3 0-4.2-1.9-4.2-4.2s1.9-4.2 4.2-4.2h66.7c2.3 0 4.2 1.9 4.2 4.2s-1.9 4.2-4.2 4.2H66.7zM37.5 54.2c0-2.3 1.9-4.2 4.2-4.2h116.7c2.3 0 4.2 1.9 4.2 4.2s-1.9 4.2-4.2 4.2H41.7c-2.3-.1-4.2-1.9-4.2-4.2z"/>
    </g>
</svg>